<?xml version="1.0" encoding="UTF-8"?>
<svg id="White" xmlns="http://www.w3.org/2000/svg" viewBox="0 0 1050 350">
  <defs>
    <style>
      .cls-1 {
        fill: #fff;
      }

      .cls-2 {
        fill: #c81331;
      }
    </style>
  </defs>
  <g id="Wordmark">
    <g id="Logo">
      <path class="cls-1" d="M327.07,84.63C276.06,11.77,177.64-7.93,104.79,43.08,31.93,94.1,16.23,192.51,67.24,265.37s149.43,92.56,222.29,41.55c72.85-51.02,88.56-149.43,37.54-222.29ZM285.78,298.56c-64.38,45.08-160.11,22.43-205.18-41.94-45.08-64.38-36.44-160.11,27.94-205.18,64.38-45.08,160.1-22.43,205.18,41.94,45.08,64.38,36.43,160.11-27.94,205.18Z"/>
      <path class="cls-1" d="M299.64,102.09c-38.17-54.5-115.18-62.03-169.68-23.87-54.5,38.16-73.45,115.18-35.29,169.68,38.16,54.5,115.18,62.03,169.67,23.87,54.5-38.16,73.46-115.18,35.3-169.68ZM260.2,265.04c-49.73,34.82-120.17,24.64-154.99-25.1-34.82-49.73-20.83-120.17,28.89-154.99,49.74-34.82,120.18-24.64,154.99,25.1,34.83,49.73,20.83,120.17-28.89,154.99Z"/>
      <path class="cls-1" d="M248.55,139.61c-20.64-29.48-57.29-36.65-86.78-16-29.48,20.64-36.65,57.29-16,86.78,20.64,29.48,57.29,36.65,86.78,16,29.48-20.64,36.65-57.29,16-86.78ZM230.1,220.34c-22.83,15.98-59.29,7.43-75.28-15.4-15.98-22.83-13.43-59.29,9.4-75.28,22.83-15.98,59.29-7.43,75.28,15.4,15.98,22.83,13.43,59.29-9.4,75.28Z"/>
      <circle class="cls-2" cx="333.62" cy="36.19" r="12.5"/>
    </g>
    <g id="Text">
      <g>
        <path class="cls-1" d="M413.58,179.6v-105.57h24.39v84.16h51.15v21.41h-75.53Z"/>
        <path class="cls-1" d="M527.18,74.03h26.17l36.58,105.57h-24.98l-7.16-23.64h-34.86l-7.2,23.64h-24.98l36.43-105.57ZM552.75,139.31l-12.33-40.74-12.41,40.74h24.74Z"/>
        <path class="cls-1" d="M626.21,74.18h22.45l11,33.9,11.15-33.9h22.45l-17.99,49.07,10.71,28.1,26.47-77.32h26.47l-41.04,105.57h-21.11l-17.1-41.34-16.95,41.34h-21.26l-41.04-105.57h26.47l26.62,77.32,10.41-28.1-17.69-49.07Z"/>
        <path class="cls-1" d="M748.29,179.6v-105.57h24.38v84.16h51.15v21.41h-75.53Z"/>
        <path class="cls-1" d="M909.47,158.19v21.41h-74.2v-105.57h72.86v21.41h-48.47v20.52h41.63v19.78h-41.63v22.45h49.81Z"/>
        <path class="cls-1" d="M924.33,179.6v-105.57h47.43c5.06,0,9.71,1.04,13.98,3.12,4.26,2.08,7.9,4.81,10.93,8.18,3.02,3.37,5.4,7.19,7.14,11.45,1.73,4.26,2.6,8.62,2.6,13.08s-.72,8.38-2.16,12.34c-1.44,3.97-3.45,7.49-6.02,10.56-2.58,3.07-5.6,5.6-9.07,7.58l23.2,39.25h-26.91l-20.22-34.05h-16.51v34.05h-24.38ZM948.72,124.14h22.45c1.88,0,3.59-.59,5.13-1.78,1.54-1.19,2.8-2.87,3.79-5.06.99-2.18,1.49-4.66,1.49-7.43,0-2.97-.57-5.52-1.71-7.66-1.14-2.13-2.58-3.79-4.31-4.98-1.73-1.19-3.49-1.78-5.28-1.78h-21.56v28.7Z"/>
      </g>
      <g>
        <path class="cls-1" d="M412.57,248.06c0-3.19.55-6.32,1.66-9.4,1.11-3.07,2.73-5.87,4.86-8.4,2.14-2.53,4.75-4.54,7.85-6.04,3.1-1.5,6.61-2.25,10.54-2.25,4.67,0,8.67,1.07,12.01,3.21,3.34,2.14,5.82,4.88,7.44,8.22l-5.23,3.39c-1.03-2.21-2.35-3.97-3.94-5.27-1.6-1.3-3.32-2.22-5.16-2.76-1.84-.54-3.65-.81-5.42-.81-2.9,0-5.47.59-7.7,1.77-2.24,1.18-4.12,2.75-5.64,4.72-1.52,1.97-2.67,4.16-3.43,6.6-.76,2.43-1.14,4.88-1.14,7.33,0,2.7.45,5.31,1.36,7.81.91,2.51,2.17,4.72,3.8,6.63,1.62,1.92,3.54,3.44,5.75,4.57s4.62,1.69,7.22,1.69c1.82,0,3.69-.32,5.6-.96,1.92-.64,3.71-1.63,5.38-2.98,1.67-1.35,3-3.11,3.98-5.27l5.53,3.02c-1.08,2.6-2.75,4.82-5.01,6.63-2.26,1.82-4.78,3.19-7.55,4.13-2.78.93-5.52,1.4-8.22,1.4-3.59,0-6.88-.77-9.88-2.32-3-1.55-5.59-3.61-7.77-6.19-2.19-2.58-3.88-5.48-5.09-8.7-1.2-3.22-1.81-6.47-1.81-9.77Z"/>
        <path class="cls-1" d="M486.86,275.03c-3.69,0-7.03-.74-10.02-2.21-3-1.47-5.59-3.48-7.77-6.01-2.19-2.53-3.87-5.38-5.05-8.55-1.18-3.17-1.77-6.42-1.77-9.77s.63-6.82,1.88-9.99c1.25-3.17,3-5.99,5.23-8.47,2.23-2.48,4.85-4.45,7.85-5.9,3-1.45,6.26-2.17,9.8-2.17s7.03.76,10.02,2.28c3,1.52,5.58,3.56,7.74,6.12,2.16,2.56,3.83,5.41,5.01,8.55,1.18,3.14,1.77,6.36,1.77,9.65,0,3.49-.61,6.82-1.84,9.99-1.23,3.17-2.96,5.99-5.2,8.47-2.24,2.48-4.85,4.43-7.85,5.86-3,1.43-6.26,2.14-9.8,2.14ZM468.95,248.5c0,2.65.43,5.22,1.29,7.7.86,2.48,2.07,4.68,3.65,6.6,1.57,1.92,3.46,3.44,5.68,4.57s4.67,1.69,7.37,1.69,5.31-.59,7.52-1.77,4.09-2.75,5.64-4.72c1.55-1.96,2.73-4.18,3.54-6.63s1.22-4.94,1.22-7.44c0-2.65-.43-5.21-1.29-7.66-.86-2.46-2.09-4.65-3.69-6.6-1.6-1.94-3.49-3.46-5.67-4.57-2.19-1.1-4.61-1.66-7.26-1.66-2.8,0-5.31.58-7.52,1.73-2.21,1.15-4.09,2.71-5.64,4.68-1.55,1.97-2.74,4.16-3.57,6.6-.84,2.43-1.25,4.93-1.25,7.48Z"/>
        <path class="cls-1" d="M520.76,274.66v-52.33h6.63v46.43h29.19v5.9h-35.82Z"/>
        <path class="cls-1" d="M563.8,274.66v-52.33h6.63v46.43h29.19v5.9h-35.82Z"/>
        <path class="cls-1" d="M642.37,268.77v5.9h-35.52v-52.33h34.86v5.9h-28.23v16.95h24.54v5.53h-24.54v18.06h28.89Z"/>
        <path class="cls-1" d="M647.01,248.06c0-3.19.55-6.32,1.66-9.4,1.1-3.07,2.73-5.87,4.86-8.4,2.14-2.53,4.75-4.54,7.85-6.04,3.1-1.5,6.61-2.25,10.54-2.25,4.67,0,8.67,1.07,12.01,3.21,3.34,2.14,5.82,4.88,7.44,8.22l-5.23,3.39c-1.03-2.21-2.35-3.97-3.94-5.27-1.6-1.3-3.32-2.22-5.16-2.76-1.84-.54-3.65-.81-5.42-.81-2.9,0-5.47.59-7.7,1.77-2.24,1.18-4.12,2.75-5.64,4.72-1.52,1.97-2.67,4.16-3.43,6.6-.76,2.43-1.14,4.88-1.14,7.33,0,2.7.45,5.31,1.36,7.81.91,2.51,2.17,4.72,3.8,6.63,1.62,1.92,3.54,3.44,5.75,4.57s4.62,1.69,7.22,1.69c1.82,0,3.69-.32,5.6-.96,1.92-.64,3.71-1.63,5.38-2.98,1.67-1.35,3-3.11,3.98-5.27l5.53,3.02c-1.08,2.6-2.75,4.82-5.01,6.63-2.26,1.82-4.78,3.19-7.55,4.13-2.78.93-5.52,1.4-8.22,1.4-3.59,0-6.88-.77-9.88-2.32-3-1.55-5.59-3.61-7.78-6.19-2.19-2.58-3.88-5.48-5.09-8.7-1.2-3.22-1.81-6.47-1.81-9.77Z"/>
        <path class="cls-1" d="M738.4,228.23h-18.06v46.43h-6.63v-46.43h-18.06v-5.9h42.75v5.9Z"/>
        <path class="cls-1" d="M745.91,274.66v-52.33h6.63v52.33h-6.63Z"/>
        <path class="cls-1" d="M766.55,222.34l17.32,44,17.25-44h7l-21.23,52.33h-6.04l-21.3-52.33h7Z"/>
        <path class="cls-1" d="M850.71,268.77v5.9h-35.52v-52.33h34.86v5.9h-28.23v16.95h24.54v5.53h-24.54v18.06h28.89Z"/>
        <path class="cls-2" d="M886.18,274.66v-52.33h6.63v46.43h29.19v5.9h-35.82Z"/>
        <path class="cls-2" d="M929.22,274.66v-52.33h6.63v46.43h29.19v5.9h-35.82Z"/>
        <path class="cls-2" d="M967.25,248.06c0-3.19.55-6.32,1.66-9.4,1.1-3.07,2.73-5.87,4.86-8.4,2.14-2.53,4.75-4.54,7.85-6.04,3.1-1.5,6.61-2.25,10.54-2.25,4.67,0,8.67,1.07,12.01,3.21,3.34,2.14,5.82,4.88,7.44,8.22l-5.23,3.39c-1.03-2.21-2.35-3.97-3.94-5.27-1.6-1.3-3.32-2.22-5.16-2.76-1.84-.54-3.65-.81-5.42-.81-2.9,0-5.47.59-7.7,1.77-2.24,1.18-4.12,2.75-5.64,4.72-1.52,1.97-2.67,4.16-3.43,6.6-.76,2.43-1.14,4.88-1.14,7.33,0,2.7.45,5.31,1.36,7.81.91,2.51,2.17,4.72,3.8,6.63,1.62,1.92,3.54,3.44,5.75,4.57s4.62,1.69,7.22,1.69c1.82,0,3.69-.32,5.6-.96,1.92-.64,3.71-1.63,5.38-2.98,1.67-1.35,3-3.11,3.98-5.27l5.53,3.02c-1.08,2.6-2.75,4.82-5.01,6.63-2.26,1.82-4.78,3.19-7.55,4.13-2.78.93-5.52,1.4-8.22,1.4-3.59,0-6.88-.77-9.88-2.32-3-1.55-5.59-3.61-7.78-6.19-2.19-2.58-3.88-5.48-5.09-8.7-1.2-3.22-1.81-6.47-1.81-9.77Z"/>
      </g>
    </g>
  </g>
</svg>