<?xml version="1.0" encoding="UTF-8"?>
<svg id="Black" xmlns="http://www.w3.org/2000/svg" viewBox="0 0 500 500">
  <defs>
    <style>
      .cls-1 {
        fill: #231f20;
      }

      .cls-2 {
        fill: #c81331;
      }
    </style>
  </defs>
  <g id="Icon">
    <path class="cls-1" d="M412.67,136.85c-63.87-91.23-187.11-115.9-278.32-52.03-91.23,63.88-110.89,187.11-47.02,278.34,63.87,91.23,187.11,115.9,278.34,52.03,91.22-63.88,110.89-187.11,47-278.34ZM360.97,404.71c-80.61,56.45-200.48,28.09-256.91-52.51-56.45-80.61-45.63-200.48,34.98-256.91,80.61-56.45,200.47-28.09,256.91,52.51,56.45,80.61,45.62,200.48-34.98,256.91Z"/>
    <path class="cls-1" d="M378.33,158.71c-47.79-68.24-144.22-77.66-212.47-29.89-68.24,47.78-91.97,144.22-44.19,212.47,47.78,68.24,144.22,77.66,212.45,29.89,68.25-47.78,91.98-144.22,44.2-212.47ZM328.94,362.75c-62.26,43.59-150.47,30.85-194.07-31.42-43.59-62.26-26.08-150.47,36.18-194.07,62.27-43.59,150.48-30.85,194.07,31.42,43.61,62.26,26.08,150.47-36.18,194.07Z"/>
    <path class="cls-1" d="M314.35,205.69c-25.84-36.91-71.73-45.89-108.66-20.03-36.91,25.84-45.89,71.73-20.03,108.66,25.84,36.91,71.73,45.89,108.66,20.03,36.91-25.84,45.89-71.73,20.03-108.66ZM291.25,306.77c-28.59,20.01-74.24,9.3-94.26-19.28-20.01-28.59-16.82-74.24,11.77-94.26,28.59-20.01,74.24-9.3,94.26,19.28,20.01,28.59,16.82,74.24-11.77,94.26Z"/>
    <circle class="cls-2" cx="420.87" cy="76.19" r="15.65"/>
  </g>
</svg>